<svg width="32" height="30" viewBox="0 0 32 30" fill="none" xmlns="http://www.w3.org/2000/svg">
<path d="M31.3333 18.5525V29.8858H24.8V19.2858C24.8 16.308 23.6888 14.8192 21.4666 14.8192C19.8222 14.8192 18.6888 15.6192 18.0666 17.2192C17.9333 17.5303 17.8666 18.0636 17.8666 18.8192V29.8858H11.2666C11.3111 17.9303 11.3111 11.3303 11.2666 10.0858H17.8666V12.8858L17.8 12.9525H17.8666V12.8858C19.2888 10.708 21.2666 9.61916 23.8 9.61916C26.0666 9.61916 27.8888 10.3747 29.2666 11.8858C30.6444 13.3969 31.3333 15.6192 31.3333 18.5525ZM4.39996 0.55249C3.28885 0.55249 2.38885 0.874712 1.69996 1.51916C1.01107 2.1636 0.666626 2.97471 0.666626 3.95249C0.666626 4.93027 0.999959 5.75249 1.66663 6.41916C2.33329 7.08582 3.19996 7.41916 4.26663 7.41916H4.33329C5.4444 7.41916 6.3444 7.08582 7.03329 6.41916C7.72218 5.75249 8.06663 4.93027 8.06663 3.95249C8.02218 2.97471 7.66663 2.1636 6.99996 1.51916C6.33329 0.874712 5.46663 0.55249 4.39996 0.55249ZM0.999959 29.8858H7.59996V10.0858H0.999959V29.8858Z" fill="#FFF8EA"/>
</svg>
