<svg width="33" height="27" viewBox="0 0 33 27" fill="none" xmlns="http://www.w3.org/2000/svg">
<path d="M29.1791 6.76802C29.1994 7.05227 29.1994 7.33658 29.1994 7.62083C29.1994 16.2908 22.6005 26.2807 10.5396 26.2807C6.82382 26.2807 3.37207 25.2045 0.468506 23.3366C0.996443 23.3975 1.50401 23.4178 2.05226 23.4178C5.11819 23.4178 7.94057 22.3823 10.1944 20.6158C7.31113 20.5548 4.89488 18.6665 4.06238 16.0675C4.46851 16.1284 4.87457 16.169 5.30101 16.169C5.88982 16.169 6.47869 16.0878 7.02688 15.9457C4.02182 15.3365 1.76794 12.697 1.76794 9.50914V9.42796C2.64101 9.91527 3.65632 10.2198 4.73238 10.2604C2.96588 9.08271 1.80857 7.07258 1.80857 4.79846C1.80857 3.58021 2.13338 2.46346 2.70194 1.48883C5.93038 5.46852 10.7832 8.06746 16.2248 8.35177C16.1233 7.86446 16.0623 7.35689 16.0623 6.84927C16.0623 3.23502 18.9862 0.290894 22.6207 0.290894C24.509 0.290894 26.2146 1.08277 27.4126 2.36196C28.8948 2.07771 30.3161 1.52946 31.575 0.778206C31.0876 2.30108 30.0521 3.58027 28.6918 4.39239C30.0116 4.25033 31.2908 3.88477 32.4684 3.37721C31.5751 4.67664 30.4583 5.83396 29.1791 6.76802Z" fill="#FFF8EA"/>
</svg>
